<svg height="960" viewBox="0 0 960 960" width="960" xmlns="http://www.w3.org/2000/svg"><g fill="none" fill-rule="evenodd"><path d="m621.391931 881.374102v-57.263929-4.126198-.223071l-.91466-767.7369388h.060923-.060923c-.060923-7.304405-16.281919-13.3820421-42.381403-17.2292144-25.002055-3.735761-59.517059-5.7988601-97.507933-5.3527174h-.183041c-38.112719.445894-72.566801 3.2896184-97.507661 7.6388877-25.977909 4.4606807-42.015593 10.8728004-41.954671 18.2329111 0 98.1904328-.426732 192.9238808-.73189 287.6573288-.670696 161.197516-1.280469 322.506443-.121846 483.257817h-.060923v4.070243 51.409115.278777.501849c-.121846 5.79886 2.622133 11.318943 8.171285 16.504543 19.330785 18.1215 72.200992 30.33248 131.53501 30.388434h.54885c78.603881 0 140.560305-20.40767 141.108883-46.279469.061195-.61326.061195-1.226519 0-1.728368z" stroke="#000" stroke-linejoin="round" stroke-width="40"/><path d="m480.712672 78.331669c-71.852301.7726128-130.152434-7.4502128-130.274845-18.4873281-.182808-11.0371153 57.873095-20.5843849 129.664406-21.4121316 71.791312-.7726129 130.152434 7.4502128 130.335594 18.487328.121787 10.9819814-57.933844 20.5843849-129.725155 21.4121317z" stroke="#000" stroke-linejoin="round" stroke-width="20"/><g fill="#000"><path d="m613.410935 883.137704c-.42424 19.397562-54.103047 40.244235-133.410011 40.244235h-.545297c-57.192975-.111374-107.782124-11.538201-125.83665-28.483286-4.180521-3.957524-6.240383-7.970735-6.18115-12.039883v-.278685c.061824-.222997.061824-.390059.061824-.613057v-36.621083c1.514565 1.505047 3.271513 2.954159 5.270846 4.347832 4.846876 3.511529 10.965932 6.744622 18.478766 9.643094 24.234379 9.420096 60.525286 14.826732 99.602936 14.826732 3.271513 0 6.664353-.055687 9.996665-.111375 39.198978-.947677 76.641007-7.190368 102.814191-17.167834 12.056526-4.570581 21.26551-9.754468 27.384836-15.272727.84821-.72468 1.635891-1.505048 2.362774-2.229728v42.306653.222998c.00027.334123.060799.724431.00027 1.226114z"/><path d="m563.851866 189.557093c.098716 1.218172.148134 2.439839.148134 3.662005v550.083775c0 25.681474-19.828301 47.005852-45.441982 48.870651l-3.558018.25904c-25.163339 1.832013-47.047395-17.081765-48.879407-42.245104-.080369-1.103891-.120593-2.210339-.120593-3.317152v-549.680447c0-25.527295 19.598321-46.77803 45.042211-48.839901l3.957789-.320723c24.957671-2.02247 46.829396 16.570185 48.851866 41.527856zm-52.903569 553.246751c-.691171 4.363882 1.843946 8.391774 5.662343 8.996548 3.818396.604775 7.474123-2.442584 8.165294-6.806465.691171-4.363882-1.843946-8.391774-5.662343-8.996548-3.818396-.604775-7.474123 2.442584-8.165294 6.806465zm-37.062936-547.553423c-4.017431 25.365062 11.519431 48.904127 34.702552 52.575972 23.183121 3.671846 45.233526-13.913981 49.250957-39.279043s-11.51943-48.904127-34.702552-52.575972c-23.183121-3.671846-45.233526 13.913981-49.250957 39.279043z"/><ellipse cx="517.862116" cy="201.898885" rx="10" ry="11" transform="matrix(.98768834 .15643447 -.15643447 .98768834 37.959686 -78.525773)"/></g></g></svg>