<svg height="960" viewBox="0 0 960 960" width="960" xmlns="http://www.w3.org/2000/svg"><g fill="none" fill-rule="evenodd"><path d="m609.395837 887.733998v-58.027448-4.181214-.226046l-.836816-777.9734311h.055738-.055738c-.055738-7.4017971-14.896225-13.5604693-38.774476-17.4589373-22.87422-3.7855712-54.451777-5.8761782-89.209385-5.4240869h-.167463c-34.869084.4518392-66.390903 3.3334799-89.209137 7.7407395-23.767023 4.5201565-38.439798 11.0177711-38.38406 18.4760166 0 99.4996382-.390415 195.4961992-.669602 291.4927602-.613616 163.346816-1.171493 326.806529-.111476 489.701254h-.055738v4.124514 52.094569.282494.50854c-.111476 5.876178 2.398972 11.469862 7.475856 16.724604 17.685612 18.36312 66.056227 30.736913 120.340542 30.793613h.502139c71.914189 0 128.597725-20.679772 129.099616-46.896528.055987-.621437.055987-1.242873 0-1.751413z" stroke="#000" stroke-linejoin="round" stroke-width="40"/><path d="m480.697872 85.3065339c-67.98333 1.1589192-123.144225-11.1753192-123.260045-27.7309921-.172964-16.5556729 54.756852-30.8765774 122.682477-32.1181974 67.925625-1.1589193 123.144225 11.1753191 123.317523 27.7309921.115229 16.472972-54.814329 30.8765773-122.739955 32.1181974z" stroke="#000" stroke-linejoin="round" stroke-width="20"/><path d="m602.413159 883.430331c-.389152 22.630489-49.628359 46.951608-122.3761 46.951608h-.500198c-52.462728-.129937-98.867813-13.461234-115.429107-33.2305-3.834764-4.617112-5.724261-9.299192-5.669927-14.04653v-.325133c.056711-.260164.056711-.455069.056711-.715233v-42.724597c1.3893 1.755889 3.000937 3.446519 4.834911 5.072471 4.446007 4.096784 10.058975 7.868725 16.950447 11.250276 22.230032 10.990112 55.519435 17.297854 91.365099 17.297854 3.000937 0 6.113166-.064969 9.169873-.129937 35.956957-1.105624 70.302277-8.388763 94.310762-20.02914 11.05937-5.332345 19.506708-11.380213 25.119925-17.818182.778057-.84546 1.500592-1.755889 2.167357-2.601349v49.357762.260164c.000247.38981.05577.84517.000247 1.430466z" fill="#000"/><path d="m495.454508 780.442731v-604.441219c-.083534-2.352378.501579-4.828725 1.755712-7.181102 4.013375-7.057133 13.378166-11.142871 22.575516-10.338037 1.755712.123693 3.428262.433478 5.10044.990373 8.110657 2.414224 12.79268 8.419137 12.542077 14.919099v604.31725c.083534 2.352378-.501579 4.828725-1.839619 7.242949-4.682395 8.357291-17.057031 12.566721-27.675956 9.347664-2.006687-.557172-3.846306-1.423851-5.434949-2.476347-4.682023-2.971119-7.274197-7.614028-7.023221-12.38063z" fill="#000"/><path d="m480.54864 64.3705413c23.185733-.1652668 41.944594-2.0372257 41.889187-4.2394725-.055653-2.2022468-18.924834-3.8541775-42.055284-3.7439178-23.241017.2202738-41.999878 2.0922327-41.944716 4.2947251.055405 2.2024924 18.92508 3.8539319 42.110813 3.6886652z" fill="#080505" fill-rule="nonzero"/></g></svg>