<svg height="960" viewBox="0 0 960 960" width="960" xmlns="http://www.w3.org/2000/svg"><g fill="none" fill-rule="evenodd"><g stroke="#000" stroke-linejoin="round"><path d="m515.274441 16.5773478 245.135093 29.9462281-2.472288 23.0802553-62.168313 621.0709318-27.2935 226.058082-151.802666-5.033882c-.234211.178209-.473252.357251-.717234.537071-9.613182 6.924653-37.841554 14.116856-61.491115 16.55869-9.760795.976417-29.988995 2.280313-54.070176 2.691437l-91.040063 9.911061-94.297379-38.53727c-2.112352-.755845-4.079353-1.842618-5.935741-3.235246-.336839-.252689-.665028-.511693-.98402-.777883-.395219-.343687-.781528-.703765-1.157969-1.080297-4.459588-4.460665-6.609679-10.305636-6.553454-15.943562l2.414042-175.822807c.112191-6.43698 2.576318-12.39542 6.625733-16.93381 4.050306-4.539391 9.670133-7.661883 16.096716-8.485303l72.069384-9.264674c2.1072-.278356 4.219468-.285421 6.292158-.029844l.173351.022474 20.553522-20.455768 55.715283-611.7274656 134.490195-17.1177664z" stroke-width="40"/><path d="m656.222916 657.96615 57.201626-567.8560144-149.030322-18.1439861-54.969678 577.0548875z" stroke-width="20"/><path d="m567 903.96615-111-5.110456 80-859.8895445" stroke-width="20"/><path d="m333 856 123 43" stroke-width="20"/><path d="m329.615821 661.051511 21.669087-20.653102 40.494866-41.556362-1.238096 214.786326-85.052902 68.91479c-3.590733 26.962527 44.346712 39.768738 143.812335 38.418632" stroke-width="20"/><path d="m214.212405 886 90.712934-9.15654 5.287066-204.84346" stroke-width="20"/><path d="m388.820548 648.334006h3.936249l82.514034 27.273607 219.554933 13.311647" stroke-width="20"/></g><path d="m501.778675 714.280129c.514214-4.719388 4.605697-8.22785 9.348296-8.0162l129.950887 5.799383c.180875.008072.361465.0216.541524.040566 4.943216.520679 8.528391 4.950041 8.007713 9.893257l-15.535248 147.488453c-.497559 4.723724-4.580356 8.247609-9.326075 8.049387l-130.523533-5.451781c-.200201-.008362-.400066-.023407-.599262-.045111-4.941318-.538395-8.510592-4.980581-7.972197-9.921899zm36.045626 62.873161c-9.778549 19.191483-2.945693 42.269818 15.261612 51.546903s40.894322 1.239877 50.672871-17.951606c9.778549-19.191484 2.945693-42.269818-15.261612-51.546903s-40.894322-1.239878-50.672871 17.951606z" fill="#000"/><path d="m547.625373 782.147185c6.769765-13.286411 22.629591-18.772456 35.423913-12.253423s17.678191 22.574518 10.908426 35.860929c-6.769765 13.286412-22.629591 18.772456-35.423913 12.253423-12.794322-6.519032-17.678191-22.574517-10.908426-35.860929zm15.365098 6.809858c-2.758053 5.412982-.605807 12.036915 4.807176 14.794967 5.412982 2.758052 12.036915.605806 14.794967-4.807176 2.758052-5.412983.605806-12.036915-4.807176-14.794968-5.412983-2.758052-12.036915-.605806-14.794967 4.807177z" fill="#000"/></g></svg>