<svg height="960" viewBox="0 0 960 960" width="960" xmlns="http://www.w3.org/2000/svg"><g fill="none" fill-rule="evenodd"><g stroke="#000" stroke-linejoin="round"><path d="m180.456593 370.652735c79.496427-37.432361 188.230328-58.637657 307.421827-54.475398s226.181324 32.900794 302.872951 75.787361c39.867205 22.294058 71.614183 48.454627 92.955346 76.929368 21.331896 28.462377 32.373102 59.28054 31.263144 91.065589-1.109959 31.78505-14.274035 61.757946-37.539403 88.662952-23.275474 26.916693-56.769988 50.79898-98.095233 70.257735-79.496426 37.43236-188.230327 58.637656-307.421826 54.475397-119.1915-4.162259-226.181324-32.900793-302.872951-75.787361-39.867205-22.294057-71.6141831-48.454627-92.9553461-76.929368-21.3318961-28.462376-32.373102-59.280539-31.2631436-91.065589s14.2740349-61.757946 37.5394025-88.662951c23.2754742-26.916694 56.7699872-50.79898 98.0952322-70.257735z" stroke-linecap="round" stroke-width="20"/><path d="m213.929399 79.5087405c75.026727-32.7038979 171.109974-50.8107986 275.270708-47.1734256 103.805992 3.6249851 198.102807 28.2337593 270.566597 65.8736833 77.379695 40.1933968 129.66734 95.4309798 145.813176 155.5356138 2.306272 8.585345 6.504918 43.651096 9.877552 80.758174l.211885 2.346091c.035123.391392.070147.782953.105071 1.174654l.208305 2.351668.299939 3.437082c1.598708 18.47462 2.977046 36.932053 3.830662 52.206086 1.497384 26.793179 3.0296 76.828817 4.585617 150.096364.344544 4.707742.430863 9.440152.264858 14.193919-1.185954 33.961266-15.08074 66.072908-39.969147 94.854861-24.071139 27.836832-58.644896 52.632316-101.399351 72.764041-80.6871 37.993011-191.030481 59.647522-312.030867 55.422096-119.669603-4.178955-227.176987-32.880452-304.820632-75.619577-41.129137-22.63963-74.0133537-49.299681-96.5009749-78.262883-23.3021149-30.012238-35.6498779-62.594676-35.4954463-96.15964l.07582-3.957975.099689-2.612796c3.0502185-79.870719 5.4153066-134.42192 7.0918775-163.653779 2.4066739-41.961576 11.583376-124.698225 15.9724586-137.741218 19.9005179-59.138172 75.8185191-110.907396 155.9422031-145.8330395z" stroke-width="40"/><path d="m904.975952 515.986132c4.215875-120.726846-182.681302-225.241232-417.446527-233.439414-234.765225-8.198183-428.4976841 83.024323-432.7135585 203.75117" stroke-linecap="round" stroke-width="12"/><path d="m904.975952 495.385661c4.215875-120.726847-182.681302-225.241233-417.446527-233.439415s-428.4976841 83.024324-432.7135585 203.75117" stroke-linecap="round" stroke-width="12"/><path d="m904.975952 473.573397c4.215875-120.726847-182.681302-225.241233-417.446527-233.439415s-428.4976841 83.024324-432.7135585 203.75117" stroke-linecap="round" stroke-width="12"/><path d="m904.89137 446.912487c4.169162-119.389153-182.765883-222.819124-417.531108-231.017307-234.765226-8.198182-428.4598163 81.939909-432.6289774 201.329062" stroke-linecap="round" stroke-width="12"/><path d="m904.975952 426.313492c4.215875-120.726847-182.681302-225.241233-417.446527-233.439415-234.765225-8.198183-428.4976841 83.024324-432.7135585 203.75117" stroke-linecap="round" stroke-width="12"/></g><path d="m599.975715 575.646524c94.545197 16.306672 168.60059 29.116585 174.411678 30.204989 16.404551 3.072537 30.706152 9.273672 38.308092 13.838981 2.885796 1.733051 7.295585 4.241995 13.229366 7.52683 1.121724.620896 1.724821 1.886045 1.500937 3.148445-.289325 1.631397-1.846379 2.719361-3.477676 2.42947l-223.180883-39.621353c-5.004904-3.175177-8.883871-6.578762-7.705903-10.464017.766814-2.529157 3.063361-4.882034 6.889642-7.058632zm-491.931305-75.95999c24.729435-1.319099 44.695639-.737322 59.898611 1.745332 10.500246 1.714696 86.93266 14.816764 182.222561 31.198542 2.829207 3.24903 3.879043 7.004689 2.346936 10.04017-1.095325 2.170109-4.931393 3.718376-9.63623 4.719215l-235.197463-41.754213c-1.372617-.243866-2.396101-1.401391-2.47036-2.793524-.088253-1.654503 1.181442-3.067285 2.835945-3.155522z" fill="#000"/></g></svg>