<?xml version="1.0" encoding="utf-8"?>
<!-- Generator: Adobe Illustrator 22.1.0, SVG Export Plug-In . SVG Version: 6.00 Build 0)  -->
<svg version="1.1" id="Layer_1" xmlns="http://www.w3.org/2000/svg" xmlns:xlink="http://www.w3.org/1999/xlink" x="0px" y="0px"
	 viewBox="0 0 90.4 70" style="enable-background:new 0 0 90.4 70;" xml:space="preserve">
<path d="M66.8,0c-9.7,0-18,5.8-21.6,14.2C41.5,5.8,33.3,0,23.6,0C10.6,0,0,10.6,0,23.6c0,7.8,3.8,14.6,9.6,18.9L45.2,70l35.6-27.6
	c5.8-4.3,9.6-11.1,9.6-18.9C90.4,10.6,79.8,0,66.8,0z M67.5,38.1H55.1l-3.5-9.3L44,52.1L36.4,35l-0.8,2.2H22.8v-3.6h10.3l2.9-8.2
	l7.5,16.8l7.9-24.3l6.2,16.6h10L67.5,38.1L67.5,38.1z"/>
</svg>
