<svg height="960" viewBox="0 0 960 960" width="960" xmlns="http://www.w3.org/2000/svg"><g fill="none" fill-rule="evenodd"><path d="m832.517251 33.7755612c21.457992-.0030487 40.884598 8.6928459 54.946839 22.7539835 14.062442 14.0613388 22.760349 33.4881337 22.760349 54.9473383l-.058763 681.370181c-.001948 24.828458-9.604607 47.542078-25.398619 64.483763-15.794011 16.941685-37.779377 28.111435-62.546738 29.852151l-568.291094 39.941021c-21.405045 1.504404-41.393456-5.809723-56.406707-18.851211-15.013251-13.041489-25.051341-31.81034-26.555745-53.215385-.127435-1.81318-.191212-3.630274-.191212-5.447928v-721.257854c0-26.116458 10.585786-49.7604728 27.700687-66.8753733 17.1149-17.1149005 40.758915-27.7006866 66.875373-27.7006866z" stroke="#000" stroke-linecap="round" stroke-linejoin="round" stroke-width="20.448878"/><path d="m262.889024 23.5360099c.229539.0076117.458782.0140308.687755.0176095.447228.0069899.895828.0031819 1.345597.000852.33185-.0017191.664137-.0033492.996825-.0033492l566.596599.0000002c24.281835-.0034476 46.264962 9.8368053 62.177777 25.7483725 15.912829 15.9115811 25.755301 37.8946063 25.755301 62.1782731l-.058716 681.289001c-.002158 27.511646-10.642215 52.68008-28.142696 71.453141s-41.861387 31.150749-69.305242 33.080903l-567.724369 39.928616c-6.659252.468352-13.197071.179305-19.529785-.789472l-93.001477-19.394914c-23.978996-5.066629-44.5822355-18.097352-59.2797487-35.970255-14.7251314-17.906488-23.5211143-40.673689-23.846396-65.161631l-.0093261-1.333278v-680.090491c0-27.412861 10.5571028-52.4814889 27.9216912-71.2235669 17.4104096-18.7915343 41.6650726-31.2208909 68.9833766-33.2792638l1.487419-.1016065z" stroke="#000" stroke-linejoin="round" stroke-width="40.897756"/><path d="m222 46.8117885c-44.650578 2.3158515-79.673642 39.4339351-79.673642 84.4395835v700.502608c0 40.986788 29.203357 76.071116 69.292 83.24602l-21.053637-3.113164c-38.420078-8.204427-66.008485-42.089433-66.556411-81.514539l-.00831-1.196375v-698.783654c0-44.2349961 33.849952-80.9103819 77.515524-84.2997742l1.326179-.0924938z" fill="#000"/><ellipse cx="544.5" cy="476.5" rx="72.5" ry="84.5" stroke="#000" stroke-linecap="round" stroke-linejoin="round" stroke-width="20.448878" transform="matrix(.99756405 .06975647 -.06975647 .99756405 34.565334 -36.82167)"/></g></svg>