<svg height="960" viewBox="0 0 960 960" width="960" xmlns="http://www.w3.org/2000/svg"><g fill="none" fill-rule="evenodd"><g stroke="#000" stroke-linejoin="round"><path d="m787.382314 820.321452v-52.52716-3.787644-.167197l-.277815-288.425615h-.277814l.277814-160.143594-.222301-1.058334c-.111027-6.68415-13.891463-13.312899-35.728765-16.877696-20.948345-3.397849-49.787015-5.291671-81.626131-4.901876h-.166788c-31.839115.390043-60.677786 3.063703-81.570618 7.018544-21.726275 4.122037-36.22888 11.530376-36.173367 18.214527 0 50.800286.111027 108.117775 0 157.748429-.277814 100.43094-.277814 194.177731.333328 294.274526v3.787644 47.179591.222847c-.055513.167197-.055513.389795-.055513.501342-.111027 5.291671 2.222763 10.360495 6.890094 15.151072 16.169739 16.599201 60.399972 27.795432 110.075961 27.851081h.444602c65.734454 0 117.632958-18.715869 118.132826-42.444913 0-.613138 0-1.114232-.055513-1.615574z" stroke-width="40"/><path d="m478.395837 881.374102v-57.263929-4.126198-.223071l-.836816-767.7369388h.055738-.055738c-.055738-7.304405-14.896225-13.3820421-38.774476-17.2292144-22.87422-3.735761-54.451777-5.7988601-89.209385-5.3527174h-.167463c-34.869084.445894-66.390903 3.2896184-89.209137 7.6388877-23.767023 4.4606807-38.439798 10.8728004-38.38406 18.2329111 0 98.1904328-.390415 192.9238808-.669602 287.6573288-.613616 161.197516-1.171493 322.506443-.111476 483.257817h-.055738v4.070243 51.409115.278777.501849c-.111476 5.79886 2.398972 11.318943 7.475856 16.504543 17.685612 18.1215 66.056227 30.33248 120.340542 30.388434h.502139c71.914189 0 128.597725-20.40767 129.099616-46.279469.055987-.61326.055987-1.226519 0-1.728368z" stroke-width="40"/><path d="m349.697872 90.3065339c-67.98333 1.1589192-123.144225-11.1753192-123.260045-27.7309921-.172964-16.5556729 54.756852-30.8765774 122.682477-32.1181974 67.925625-1.1589193 123.144225 11.1753191 123.317523 27.7309921.115229 16.472972-54.814329 30.8765773-122.739955 32.1181974z" stroke-width="20"/></g><path d="m471.413159 883.137704c-.389152 19.397562-49.628359 40.244235-122.3761 40.244235h-.500198c-52.462728-.111374-98.867813-11.538201-115.429107-28.483286-3.834764-3.957524-5.724261-7.970735-5.669927-12.039883v-.278685c.056711-.222997.056711-.390059.056711-.613057v-36.621083c1.3893 1.505047 3.000937 2.954159 4.834911 4.347832 4.446007 3.511529 10.058975 6.744622 16.950447 9.643094 22.230032 9.420096 55.519435 14.826732 91.365099 14.826732 3.000937 0 6.113166-.055687 9.169873-.111375 35.956957-.947677 70.302277-7.190368 94.310762-17.167834 11.05937-4.570581 19.506708-9.754468 25.119925-15.272727.778057-.72468 1.500592-1.505048 2.167357-2.229728v42.306653.222998c.000247.334123.05577.724431.000247 1.226114z" fill="#000"/><path d="m669.68313 344.320257c-66.25759.883121-120.12251-7.821769-120.245303-19.365365-.122373-11.606614 53.435815-21.636328 119.693132-22.519449 66.318881-.820101 120.12251 7.88479 120.306868 19.428385.122373 11.543595-53.497107 21.636328-119.754697 22.456429z" stroke="#000" stroke-linejoin="round" stroke-width="20"/><path d="m781.437827 822.016171c-.388918 18.034746-45.599532 37.365768-112.36042 37.365768h-.444407c-48.20999-.056305-90.754657-10.708036-105.972997-26.432259-3.499024-3.71966-5.276405-7.439321-5.222176-11.215286l.056749-.225472c0-.225472 0-.394639 0-.563554v-34.040495c1.277485 1.408886 2.777173 2.761718 4.498816 4.057742 3.998921 3.212411 9.219836 6.255655 15.551522 8.961068 20.328278 8.735596 50.931426 13.751532 83.812098 13.751532 2.777172 0 5.609586-.056306 8.386758-.112611 33.047139-.845331 64.594589-6.650294 86.589022-15.949444 10.164139-4.226909 17.884287-9.017373 23.105203-14.202224.666363-.676165 1.332974-1.352581 1.943848-2.028997v39.281903.225472c.055984.337831.055984.675913.055984 1.126857z" fill="#000"/><path d="m721.425696 475.893706v2.734342 220.094308c.056308 1.953065-.281787 4.017883-1.070841 5.970949-2.930737 6.975731-10.595799 10.435596-17.19002 7.812759-1.240015-.502267-2.367163-1.227791-3.325139-2.064819-2.930737-2.511333-4.508845-6.305959-4.396231-10.268091v-221.545106-2.734342-21.875476c-.056307-1.953065.338094-3.962132 1.127149-5.971198 2.42347-5.803693 8.284943-9.207806 13.977496-8.594035 1.070841.167505 2.085376.390513 3.156217.837028 5.016112 2.009066 7.946849 7.031483 7.721369 12.388661z" fill="#000"/><path d="m377.448948 749.041649v-543.807618c-.05569-2.116402.334386-4.344338 1.170474-6.460741 2.675584-6.349207 8.918778-10.02509 15.050344-9.300992 1.170475.111285 2.285508.389994 3.400293.891025 5.407106 2.172045 8.528454 7.574585 8.361385 13.422513v543.696084c.05569 2.116402-.334385 4.344338-1.226412 6.516383-3.121597 7.518942-11.371355 11.30611-18.450637 8.409967-1.337792-.501279-2.564205-1.28102-3.6233-2.227936-3.121349-2.673076-4.849464-6.850238-4.682147-11.138685z" fill="#000"/><path d="m349.54864 69.3705413c23.185733-.1652668 41.944594-2.0372257 41.889187-4.2394725-.055653-2.2022468-18.924834-3.8541775-42.055284-3.7439178-23.241017.2202738-41.999878 2.0922327-41.944716 4.2947251.055405 2.2024924 18.92508 3.8539319 42.110813 3.6886652z" fill="#080505" fill-rule="nonzero"/><path d="m666.549754 326.368611c21.54238-.120694 38.944088-2.053692 38.888073-4.288696-.056037-2.174656-17.569796-3.865726-39.056026-3.684684-21.542381.181311-38.99999 2.11404-38.943974 4.288696.056036 2.174656 17.513645 3.865995 39.111927 3.684684z" fill="#080505" fill-rule="nonzero"/></g></svg>