<svg height="960" viewBox="0 0 960 960" width="960" xmlns="http://www.w3.org/2000/svg"><path d="m451.451396 16.9549955c17.281086-13.7329246 41.758618-13.70923852 59.013089.057105l384.833191 307.0361335c11.263464 8.986466 17.823084 22.610971 17.823084 37.019018v544.015921c0 10.334057-3.380488 20.384504-9.625862 28.61842-15.807409 20.840525-45.518451 24.922206-66.361471 9.116689l-279.978483-212.311661c-1.252614-1.830698-2.833471-3.482582-4.728197-4.863927l-43.690987-31.852394-20.61381-15.631697c-.989067-.750021-2.066652-1.32473-3.191383-1.724089l-370.757576-270.299478-.302204-.216136c-8.903688-6.246048-21.2070425-4.230202-27.6410483 4.595024-6.5071196 8.925513-4.5466248 21.436133 4.3788877 27.943252l356.4751336 259.887124-324.047854 244.756921c-8.057659 6.086001-17.845139 9.434544-27.9317501 9.566051l-.6179092.004028c-26.1592361 0-47.365487-21.203713-47.365487-47.359819v-544.187746c0-14.440198 6.5887896-28.09147 17.8948007-37.076124z" fill-rule="evenodd"/></svg>