<svg height="960" viewBox="0 0 960 960" width="960" xmlns="http://www.w3.org/2000/svg"><path d="m166.742891 24.9978213.329109.0181787.457047.0132355 743 28.4228242c21.480741.8217272 38.470953 18.4743126 38.470953 39.9707645v771.8788148c0 21.469889-16.949682 39.1106-38.402441 39.968085l-743 29.698361-.665559.020915-.219152.011422c-4.867739.206483-9.888019-.487312-14.858726-2.221907l-.784408-.282553-113.9999996-42.352629c-15.6719743-5.822363-26.0697144-20.777389-26.0697144-37.495962v-742.160815c0-16.3687024 9.9730794-31.0856631 25.1762496-37.1518022l114.0000004-45.4865562c5.516693-2.2011875 11.134102-3.0868027 16.566641-2.8503763zm-.742891 40.1898601v829.8123186l742.844-29.693319.00028-771.7192658zm-20.627 8.487-32.499 12.956.185 788.5809996 32.314 11.995zm-52.497 20.929-41.1013581 16.3859096v741.474l41.2823581 15.32309zm444.86269 7.3536136c69.908082 2.203347 165.862537 7.592144 287.925337 16.165842l3.705897.261446.877155.067476c28.595334 2.443459 51.115852 25.462975 52.932191 54.105841l.04912.878563c4.845439 100.169858 7.857357 201.384157 9.035909 303.642872 1.175897 102.028374.541038 202.032793-1.904822 300.01249-.731265 29.349415-23.277828 53.523841-52.504719 56.296046-92.826647 8.80685-190.677302 16.028944-293.553589 21.667176-101.863894 5.582748-198.29611 8.515015-289.300471 8.795641-30.87912.093752-56.417669-24.022493-58.091343-54.856352-5.785832-106.590176-8.678431-215.586556-8.678431-326.989225 0-111.490261 2.89715-220.097405 8.692267-325.822307 1.667777-30.410668 26.572946-54.351332 57.025743-54.817257 119.072938-1.8143363 213.646664-1.6190063 283.789756.591748zm-135.112346 18.180729h-5.804086c-42.77891.020508-90.301364.428775-142.567362 1.225146-19.951847.305298-36.269031 15.990582-37.36166 35.914828l-.312182 5.749494c-5.566753 103.542496-8.35013 209.868369-8.35013 318.977619 0 111.044929 2.883011 219.679995 8.649032 325.905199 1.096545 20.201502 17.828696 36.0018 38.059843 35.940559l3.944677-.014169c89.490391-.350695 184.264464-3.267923 284.322217-8.751683 102.61793-5.624074 200.204282-12.826681 292.759064-21.607738 19.148938-1.8163 33.920821-17.654699 34.399968-36.883615l.167242-6.822008c2.304725-95.554136 2.8785-193.041413 1.73266-292.461833-1.17573-102.013943-4.180329-202.982959-9.01388-302.907045-.930772-19.224094-16.087531-34.716683-35.286614-36.068466l-3.699787-.260142c-121.828899-8.557284-217.547799-13.932884-287.156699-16.126802-37.682717-1.187675-82.510151-1.79079-134.482303-1.809344zm67.673804 95.926818.570887.01026 151.99522 3.576338c19.082165.450761 34.495555 15.716513 35.129902 34.791968 2.517762 75.542382 3.776742 149.83114 3.776742 222.866415 0 72.991378-1.257467 145.982704-3.772428 218.974775-.646408 18.736378-15.564063 33.840336-34.288439 34.719077l-152.073513 7.156281c-19.333991.910408-35.927428-13.629523-37.564174-32.913687-6.289568-74.019663-9.433859-149.284637-9.433859-225.793702 0-75.149095 3.033501-150.297517 9.100341-225.443969l.393659-4.811118.005888-.086933c1.548979-18.810533 17.350477-33.196525 36.159774-33.045705zm-16.227241 34.687077-.396931 4.865986c-6.02366 74.611554-9.03549 149.223108-9.03549 223.834662 0 75.948411 3.120726 150.648531 9.362046 224.100372.727515 8.571588 8.102376 15.033779 16.69526 14.629154l152.07412-7.15631c8.323084-.390605 14.953158-7.103488 15.240428-15.43078l.283732-8.395583c2.317885-69.963199 3.476827-139.926398 3.476827-209.889597 0-72.811506-1.255227-146.87824-3.765643-222.200203-.281954-8.478641-7.132349-15.263419-15.613312-15.463758l-151.996297-3.576418c-8.470894-.200503-15.629351 6.237791-16.32474 14.682475z" fill-rule="evenodd"/></svg>
