<svg height="960" viewBox="0 0 960 960" width="960" xmlns="http://www.w3.org/2000/svg"><g fill="none" fill-rule="evenodd"><rect height="918" rx="14" stroke="#000" stroke-linejoin="round" stroke-width="40" width="918" x="21.391608" y="21.5"/><path d="m711.386291 702.96346c-107.637208 13.678484-194.525075 19.928136-324.797928 18.277284-118.365561.235836-237.084803-5.895898-333.7578706-18.277284-22.3998571-2.947949-26.6440406-3.537538-29.8271782-17.805612-23.34300894-142.916567-28.41245028-335.830349-15.32621798-578.741346 5.30522928-86.9055363 5.54101728-89.0280596 59.06488638-93.3910241 122.8455324-9.66927271 183.9146164-12.85305762 315.3664094-12.49930374 131.451793-.35375388 192.520877 2.83003103 315.366409 12.49930374 53.523869 4.3629645 53.759657 6.4854878 59.064886 93.3910241 13.086232 242.910997 8.016791 435.824779-15.326218 578.741346-3.065244 14.268074-7.309427 14.857663-29.827178 17.805612zm-418.405752-562.468668c29.709284 0 59.418569 0 89.127853-.117918 29.827178 0 59.536462-.117918 89.36364-.117918 1.650516 0 3.183138.707508 4.244184 1.886688 1.178939 1.179179 2.239985 3.065867 2.239985 4.834636-.58947 145.510762-.707364 291.021525-1.296834 436.532287 0 1.650852-1.296833 3.065867-2.357879 4.127129-1.061046 1.061261-2.593668 1.650851-4.244184 1.650851-28.648238 0-57.296476 0-85.944715 0-28.648238 0-57.296476 0-85.944714 0-1.650516 0-3.065244-.707508-4.12629-1.768769-1.061046-1.061262-1.76841-2.476277-1.76841-4.127129v-1.297097c-.117894-.235836-.117894-.471672-.117894-.707508l-2.593667-213.195671-2.593668-217.558636v-3.655457-.117918-.117918c0-1.650851.58947-3.183785 1.650516-4.245046 1.061046-1.17918 2.593667-1.886688 4.362077-2.004606zm178.491493.353754c-29.827178.117918-59.536462.117918-89.36364.235836-29.709284 0-59.418569 0-89.127853.117918-1.296834 0-2.475773.471672-3.301031 1.17918 0 0 .117894-.117918.117894-.117918.58947-.235836 1.178939-.353754 1.768409-.353754l88.066807-.117918 88.184701-.235836c.707363 0 1.296833.117918 1.768409.471672.58947.235836 1.17894.58959 1.650516 1.061261.353682.471672.707364.943344.943152 1.532934.235788.707508.353682 1.297098.353682 2.004605l-.707364 221.449929-.707364 213.431507c0 .58959-.117894 1.179179-.353682 1.650851-.235788.58959-.58947 1.061262-1.061046 1.532934-.353682.471672-.943152.825425-1.414728 1.061261-.589469.235836-1.178939.353754-1.768409.353754l-84.883669-.117918h-84.883669c-.58947 0-1.17894-.117918-1.650516-.353754-.58947-.235836-1.061046-.589589-1.532622-1.061261-.353682-.235836-.58947-.58959-.707364-.943344 0 1.297098.58947 2.594195 1.532622 3.537539s2.35788 1.532933 3.772608 1.650851h85.944714 85.944715c1.532622 0 2.829456-.58959 3.772608-1.532933 1.061046-.943344 1.650516-2.358359 1.650516-3.773375.235788-70.632858.471575-142.091141.707363-214.374851.235788-73.227053.471576-147.397449.707364-222.51119 0-1.532933-.58947-3.065867-1.532621-4.00921-1.061046-1.061262-2.35788-1.76877-3.890502-1.76877z" fill="#000" stroke="#2b2a29" stroke-width=".5" transform="translate(98.391608 119.5)"/></g></svg>