<svg height="960" viewBox="0 0 960 960" width="960" xmlns="http://www.w3.org/2000/svg"><g fill="none" fill-rule="evenodd"><g stroke="#000" stroke-linejoin="round"><path d="m593.618068 21.8438916 68.452449 28.2900278-4.469006 849.1344956-304.460319 40.184546-53.141192-79.243024v-826.8607542z" stroke-width="40"/><path d="m362 918-6.500793-845.279715 310.477817-9.720285-80.977024-44.9446181-272.39982 14.6567759-14.008328 23.8684239v799.4266383l46.527331 74.796926z" fill="#000" stroke-width="20"/><path d="m642 63-286 10" stroke-width="20"/><path d="m649 336-290.451137 21" stroke-width="20"/><path d="m649 612-290.451429 29" stroke-width="20"/></g><path d="m8 254c4.418278 0 8 3.357864 8 7.5s-3.581722 7.5-8 7.5-8-3.357864-8-7.5 3.581722-7.5 8-7.5zm60-6c4.418278 0 8 3.357864 8 7.5s-3.581722 7.5-8 7.5-8-3.357864-8-7.5 3.581722-7.5 8-7.5zm60-8c4.418278 0 8 3.357864 8 7.5s-3.581722 7.5-8 7.5-8-3.357864-8-7.5 3.581722-7.5 8-7.5zm-90-1c4.418278 0 8 3.357864 8 7.5s-3.581722 7.5-8 7.5-8-3.357864-8-7.5 3.581722-7.5 8-7.5zm149-5c4.418278 0 8 3.357864 8 7.5s-3.581722 7.5-8 7.5-8-3.357864-8-7.5 3.581722-7.5 8-7.5zm-89-1c4.418278 0 8 3.357864 8 7.5s-3.581722 7.5-8 7.5-8-3.357864-8-7.5 3.581722-7.5 8-7.5zm-90-5c4.418278 0 8 3.357864 8 7.5s-3.581722 7.5-8 7.5-8-3.357864-8-7.5 3.581722-7.5 8-7.5zm239-1c4.418278 0 8 3.357864 8 7.5s-3.581722 7.5-8 7.5-8-3.357864-8-7.5 3.581722-7.5 8-7.5zm-89.5-2c4.142136 0 7.5 3.357864 7.5 7.5s-3.357864 7.5-7.5 7.5-7.5-3.357864-7.5-7.5 3.357864-7.5 7.5-7.5zm-89.5-3c4.418278 0 8 3.357864 8 7.5s-3.581722 7.5-8 7.5-8-3.357864-8-7.5 3.581722-7.5 8-7.5zm149-3c4.418278 0 8 3.357864 8 7.5s-3.581722 7.5-8 7.5-8-3.357864-8-7.5 3.581722-7.5 8-7.5zm-89-5c4.418278 0 8 3.357864 8 7.5s-3.581722 7.5-8 7.5-8-3.357864-8-7.5 3.581722-7.5 8-7.5zm-90-1c4.418278 0 8 3.357864 8 7.5s-3.581722 7.5-8 7.5-8-3.357864-8-7.5 3.581722-7.5 8-7.5zm149-4c4.418278 0 8 3.134007 8 7s-3.581722 7-8 7-8-3.134007-8-7 3.581722-7 8-7zm-89-2c4.418278 0 8 3.357864 8 7.5s-3.581722 7.5-8 7.5-8-3.357864-8-7.5 3.581722-7.5 8-7.5zm-90-5c4.418278 0 8 3.357864 8 7.5s-3.581722 7.5-8 7.5-8-3.357864-8-7.5 3.581722-7.5 8-7.5zm239 1c4.418278 0 8 2.910149 8 6.5s-3.581722 6.5-8 6.5-8-2.910149-8-6.5 3.581722-6.5 8-6.5zm-89.5-3c4.142136 0 7.5 3.134007 7.5 7s-3.357864 7-7.5 7-7.5-3.134007-7.5-7 3.357864-7 7.5-7zm-89.5-4c4.418278 0 8 3.357864 8 7.5s-3.581722 7.5-8 7.5-8-3.357864-8-7.5 3.581722-7.5 8-7.5zm149-2c4.418278 0 8 3.357864 8 7.5s-3.581722 7.5-8 7.5-8-3.357864-8-7.5 3.581722-7.5 8-7.5zm-89-5c4.418278 0 8 3.357864 8 7.5s-3.581722 7.5-8 7.5-8-3.357864-8-7.5 3.581722-7.5 8-7.5zm-90-2c4.418278 0 8 3.357864 8 7.5s-3.581722 7.5-8 7.5-8-3.357864-8-7.5 3.581722-7.5 8-7.5zm149-4c4.418278 0 8 3.357864 8 7.5s-3.581722 7.5-8 7.5-8-3.357864-8-7.5 3.581722-7.5 8-7.5zm-89-2c4.418278 0 8 3.357864 8 7.5s-3.581722 7.5-8 7.5-8-3.357864-8-7.5 3.581722-7.5 8-7.5zm149-4c4.418278 0 8 3.357864 8 7.5s-3.581722 7.5-8 7.5-8-3.357864-8-7.5 3.581722-7.5 8-7.5zm-239-1c4.418278 0 8 3.357864 8 7.5s-3.581722 7.5-8 7.5-8-3.357864-8-7.5 3.581722-7.5 8-7.5zm149.5-2c4.142136 0 7.5 3.357864 7.5 7.5s-3.357864 7.5-7.5 7.5-7.5-3.357864-7.5-7.5 3.357864-7.5 7.5-7.5zm-89.5-4c4.418278 0 8 3.357864 8 7.5s-3.581722 7.5-8 7.5-8-3.357864-8-7.5 3.581722-7.5 8-7.5zm149-2c4.418278 0 8 3.357864 8 7.5s-3.581722 7.5-8 7.5-8-3.357864-8-7.5 3.581722-7.5 8-7.5zm-89-5c4.418278 0 8 3.357864 8 7.5s-3.581722 7.5-8 7.5-8-3.357864-8-7.5 3.581722-7.5 8-7.5zm-90-2c4.418278 0 8 3.357864 8 7.5s-3.581722 7.5-8 7.5-8-3.357864-8-7.5 3.581722-7.5 8-7.5zm149-4c4.418278 0 8 3.357864 8 7.5s-3.581722 7.5-8 7.5-8-3.357864-8-7.5 3.581722-7.5 8-7.5zm-89-2c4.418278 0 8 3.357864 8 7.5s-3.581722 7.5-8 7.5-8-3.357864-8-7.5 3.581722-7.5 8-7.5zm149-4c4.418278 0 8 3.357864 8 7.5s-3.581722 7.5-8 7.5-8-3.357864-8-7.5 3.581722-7.5 8-7.5zm-239-1c4.418278 0 8 3.357864 8 7.5s-3.581722 7.5-8 7.5-8-3.357864-8-7.5 3.581722-7.5 8-7.5zm149.5-2c4.142136 0 7.5 3.357864 7.5 7.5s-3.357864 7.5-7.5 7.5-7.5-3.357864-7.5-7.5 3.357864-7.5 7.5-7.5zm-89.5-4c4.418278 0 8 3.357864 8 7.5s-3.581722 7.5-8 7.5-8-3.357864-8-7.5 3.581722-7.5 8-7.5zm149-2c4.418278 0 8 3.357864 8 7.5s-3.581722 7.5-8 7.5-8-3.357864-8-7.5 3.581722-7.5 8-7.5zm-89-5c4.418278 0 8 3.357864 8 7.5s-3.581722 7.5-8 7.5-8-3.357864-8-7.5 3.581722-7.5 8-7.5zm-90-2c4.418278 0 8 3.357864 8 7.5s-3.581722 7.5-8 7.5-8-3.357864-8-7.5 3.581722-7.5 8-7.5zm149-4c4.418278 0 8 3.357864 8 7.5s-3.581722 7.5-8 7.5-8-3.357864-8-7.5 3.581722-7.5 8-7.5zm-89-2c4.418278 0 8 3.357864 8 7.5s-3.581722 7.5-8 7.5-8-3.357864-8-7.5 3.581722-7.5 8-7.5zm149-3c4.418278 0 8 3.357864 8 7.5s-3.581722 7.5-8 7.5-8-3.357864-8-7.5 3.581722-7.5 8-7.5zm-239-2c4.418278 0 8 3.357864 8 7.5s-3.581722 7.5-8 7.5-8-3.357864-8-7.5 3.581722-7.5 8-7.5zm149.5-1c4.142136 0 7.5 3.134007 7.5 7s-3.357864 7-7.5 7-7.5-3.134007-7.5-7 3.357864-7 7.5-7zm-89.5-5c4.418278 0 8 3.357864 8 7.5s-3.581722 7.5-8 7.5-8-3.357864-8-7.5 3.581722-7.5 8-7.5zm149-1c4.418278 0 8 3.134007 8 7s-3.581722 7-8 7-8-3.134007-8-7 3.581722-7 8-7zm-89-5c4.418278 0 8 3.357864 8 7.5s-3.581722 7.5-8 7.5-8-3.357864-8-7.5 3.581722-7.5 8-7.5zm-90-3c4.418278 0 8 3.357864 8 7.5s-3.581722 7.5-8 7.5-8-3.357864-8-7.5 3.581722-7.5 8-7.5zm149-3c4.418278 0 8 3.357864 8 7.5s-3.581722 7.5-8 7.5-8-3.357864-8-7.5 3.581722-7.5 8-7.5zm-89-3c4.418278 0 8 3.357864 8 7.5s-3.581722 7.5-8 7.5-8-3.357864-8-7.5 3.581722-7.5 8-7.5zm149-2c4.418278 0 8 3.357864 8 7.5s-3.581722 7.5-8 7.5-8-3.357864-8-7.5 3.581722-7.5 8-7.5zm-239-3c4.418278 0 8 3.357864 8 7.5s-3.581722 7.5-8 7.5-8-3.357864-8-7.5 3.581722-7.5 8-7.5zm149.5-1c4.142136 0 7.5 3.357864 7.5 7.5s-3.357864 7.5-7.5 7.5-7.5-3.357864-7.5-7.5 3.357864-7.5 7.5-7.5zm-89.5-5c4.418278 0 8 3.3578644 8 7.5 0 4.142136-3.581722 7.5-8 7.5s-8-3.357864-8-7.5c0-4.1421356 3.581722-7.5 8-7.5zm149-1c4.418278 0 8 3.3578644 8 7.5 0 4.142136-3.581722 7.5-8 7.5s-8-3.357864-8-7.5c0-4.1421356 3.581722-7.5 8-7.5zm-89-5c4.418278 0 8 3.3578644 8 7.5s-3.581722 7.5-8 7.5-8-3.3578644-8-7.5 3.581722-7.5 8-7.5zm-90-3c4.418278 0 8 3.3578644 8 7.5s-3.581722 7.5-8 7.5-8-3.3578644-8-7.5 3.581722-7.5 8-7.5zm149-3c4.418278 0 8 3.3578644 8 7.5s-3.581722 7.5-8 7.5-8-3.3578644-8-7.5 3.581722-7.5 8-7.5zm-89-3c4.418278 0 8 3.3578644 8 7.5s-3.581722 7.5-8 7.5-8-3.3578644-8-7.5 3.581722-7.5 8-7.5zm149-1c4.418278 0 8 3.3578644 8 7.5s-3.581722 7.5-8 7.5-8-3.3578644-8-7.5 3.581722-7.5 8-7.5zm-239-4c4.418278 0 8 3.3578644 8 7.5s-3.581722 7.5-8 7.5-8-3.3578644-8-7.5 3.581722-7.5 8-7.5zm149.5-1c4.142136 0 7.5 3.3578644 7.5 7.5s-3.357864 7.5-7.5 7.5-7.5-3.3578644-7.5-7.5 3.357864-7.5 7.5-7.5zm-89.5-5c4.418278 0 8 3.3578644 8 7.5s-3.581722 7.5-8 7.5-8-3.3578644-8-7.5 3.581722-7.5 8-7.5zm149-1c4.418278 0 8 3.3578644 8 7.5s-3.581722 7.5-8 7.5-8-3.3578644-8-7.5 3.581722-7.5 8-7.5zm-89-5c4.418278 0 8 3.3578644 8 7.5s-3.581722 7.5-8 7.5-8-3.3578644-8-7.5 3.581722-7.5 8-7.5zm-90-3c4.418278 0 8 3.3578644 8 7.5s-3.581722 7.5-8 7.5-8-3.3578644-8-7.5 3.581722-7.5 8-7.5zm149-3c4.418278 0 8 3.3578644 8 7.5s-3.581722 7.5-8 7.5-8-3.3578644-8-7.5 3.581722-7.5 8-7.5zm-89-3c4.418278 0 8 3.3578644 8 7.5s-3.581722 7.5-8 7.5-8-3.3578644-8-7.5 3.581722-7.5 8-7.5zm149-1c4.418278 0 8 3.3578644 8 7.5s-3.581722 7.5-8 7.5-8-3.3578644-8-7.5 3.581722-7.5 8-7.5zm-239-4c4.418278 0 8 3.3578644 8 7.5s-3.581722 7.5-8 7.5-8-3.3578644-8-7.5 3.581722-7.5 8-7.5zm149.5-1c4.142136 0 7.5 3.3578644 7.5 7.5s-3.357864 7.5-7.5 7.5-7.5-3.3578644-7.5-7.5 3.357864-7.5 7.5-7.5zm-89.5-5c4.418278 0 8 3.3578644 8 7.5s-3.581722 7.5-8 7.5-8-3.3578644-8-7.5 3.581722-7.5 8-7.5zm149 0c4.418278 0 8 3.1340068 8 7s-3.581722 7-8 7-8-3.1340068-8-7 3.581722-7 8-7zm-89-5c4.418278 0 8 3.1340068 8 7s-3.581722 7-8 7-8-3.1340068-8-7 3.581722-7 8-7zm-90-4c4.418278 0 8 3.3578644 8 7.5s-3.581722 7.5-8 7.5-8-3.3578644-8-7.5 3.581722-7.5 8-7.5zm149-2c4.418278 0 8 3.3578644 8 7.5s-3.581722 7.5-8 7.5-8-3.3578644-8-7.5 3.581722-7.5 8-7.5zm60-3c4.418278 0 8 3.1340068 8 7s-3.581722 7-8 7-8-3.1340068-8-7 3.581722-7 8-7zm-149-1c4.418278 0 8 3.3578644 8 7.5s-3.581722 7.5-8 7.5-8-3.3578644-8-7.5 3.581722-7.5 8-7.5zm-90-5c4.418278 0 8 3.3578644 8 7.5s-3.581722 7.5-8 7.5-8-3.3578644-8-7.5 3.581722-7.5 8-7.5zm149.5 0c4.142136 0 7.5 3.3578644 7.5 7.5s-3.357864 7.5-7.5 7.5-7.5-3.3578644-7.5-7.5 3.357864-7.5 7.5-7.5zm-89.5-6c4.418278 0 8 3.3578644 8 7.5s-3.581722 7.5-8 7.5-8-3.3578644-8-7.5 3.581722-7.5 8-7.5zm149 0c4.418278 0 8 3.3578644 8 7.5s-3.581722 7.5-8 7.5-8-3.3578644-8-7.5 3.581722-7.5 8-7.5zm-89-5c4.418278 0 8 3.3578644 8 7.5s-3.581722 7.5-8 7.5-8-3.3578644-8-7.5 3.581722-7.5 8-7.5zm59-6c4.418278 0 8 3.35786438 8 7.5 0 4.1421356-3.581722 7.5-8 7.5s-8-3.3578644-8-7.5c0-4.14213562 3.581722-7.5 8-7.5zm60-3c4.418278 0 8 3.35786438 8 7.5 0 4.1421356-3.581722 7.5-8 7.5s-8-3.3578644-8-7.5c0-4.14213562 3.581722-7.5 8-7.5z" fill="#000" transform="translate(376 354)"/><path d="m665.977024 58.254694-5.971271 277.745306-316.637345 21v-289zm-205.382591 138.570057c-6.154508 21.78028 6.051036 44.440016 27.261845 50.611935 21.210809 6.17192 43.394782-6.481157 49.549289-28.261437 6.154508-21.78028-6.051036-44.440016-27.261845-50.611935-21.210809-6.17192-43.394782 6.481157-49.549289 28.261437zm108.717456-74.029281c-1.217528 4.246026 1.237555 8.675112 5.483581 9.892641 4.246026 1.217528 8.675112-1.237555 9.892641-5.483581 1.217528-4.246026-1.237555-8.675112-5.483581-9.892641-4.246026-1.217528-8.675112 1.237555-9.892641 5.483581z" fill="#000"/><path d="m491.887768 237.865585c15.372522 4.497571 31.466384-4.77999 35.946646-20.722013 4.480262-15.942022-4.34966-32.511587-19.722182-37.009157-15.372522-4.497571-31.466384 4.77999-35.946646 20.722013-4.480262 15.942022 4.34966 32.511587 19.722182 37.009157z" fill="#000"/><path d="m494 848.450653 24.955004-2.110573c-3.594697-4.482047-5.392046-8.247754-5.392046-11.297119 0-4.574048-2.950693-9.754353-7.085456-9.754353s-8.622428 2.179046-7.808644 9.754353c.542523 5.050204-1.013763 9.519435-4.668858 13.407692z" fill="#000" stroke="#000" stroke-linejoin="round" stroke-width="5"/><path d="m502.795475 848.375635c.123416 3.520616 1.597334 5.022272 4.421753 4.504966s3.976788-2.48417 3.457108-5.900591z" fill="#000" stroke="#000" stroke-linejoin="round" stroke-width="5"/></g></svg>